<svg width="512" height="512" viewBox="0 0 512 512" fill="none" xmlns="http://www.w3.org/2000/svg">
<rect width="512" height="512" fill="white"/>
<path d="M277.902 288.968C280.47 288.968 281.829 291.849 280.117 293.664L258.451 323.485C257.27 324.737 255.203 324.737 254.021 323.485L232.356 293.664C230.644 291.849 232.002 288.968 234.571 288.968H277.902Z" fill="#4CB1F1"/>
<path d="M169.828 166C182.241 189.685 202.933 204.989 230.14 212.551L239.751 273.691C240.607 279.14 239.751 284.037 232.356 284.037C228.585 284.037 224.527 279.289 223.008 276.016L170.889 172.48C170.814 172.317 169.895 166.164 169.828 166Z" fill="#4CB1F1"/>
<path d="M236.531 215.003C242.485 216.039 252.344 216.409 258.614 216.409C264.524 216.409 274.485 215.926 280.117 215.003L270.902 276.016C270.241 280.611 262.377 284.036 257.486 284.037C252.524 284.037 245.841 280.689 245.265 276.016L236.531 215.003Z" fill="#4CB1F1"/>
<path d="M291.749 278.69C290.231 281.963 287.35 284.036 283.579 284.037C276.289 284.037 275.432 279.14 276.289 273.691L285.846 212.888C310.088 206.47 328.117 190.72 341.333 171.071L291.749 278.69Z" fill="#4CB1F1"/>
<path d="M255.19 55.0002C305.136 55.0002 345.625 94.3537 345.625 142.899C345.625 191.443 305.135 230.797 255.19 230.797C205.245 230.797 164.757 191.443 164.757 142.899C164.757 94.3538 205.245 55.0003 255.19 55.0002ZM255.473 113.035C238.98 113.035 225.61 126.279 225.609 142.616C225.609 158.954 238.98 172.198 255.473 172.198C271.965 172.198 285.336 158.954 285.336 142.616C285.336 126.279 271.965 113.035 255.473 113.035Z" fill="#4CB1F1"/>
<path d="M112.331 341.778L106 315.967C173.178 298.61 233.846 341.902 255.617 365.718V373.199C255.617 373.199 198.303 309.234 112.331 341.778Z" fill="#4CB1F1"/>
<path d="M120.84 300.63L120.84 279.308C189.745 281.557 239.693 337.031 255.617 364.221C255.617 364.221 202.635 293.897 120.84 300.63Z" fill="#4CB1F1"/>
<path d="M398.669 341.818L405 316.008C337.822 298.651 277.387 341.902 255.617 365.717V373.199C255.617 373.199 312.697 309.274 398.669 341.818Z" fill="#4CB1F1"/>
<path d="M390.16 300.671L390.16 279.349C321.255 281.599 271.541 337.031 255.617 364.221C255.617 364.221 308.365 293.938 390.16 300.671Z" fill="#4CB1F1"/>
<mask id="path-7-outside-1_2578_1645" maskUnits="userSpaceOnUse" x="128" y="393" width="263" height="59" fill="black">
<rect fill="white" x="128" y="393" width="263" height="59"/>
<path d="M150.728 428.685V423.295C150.728 421.425 150.398 420.16 149.738 419.5C149.078 418.803 147.831 418.455 145.998 418.455H141.763C141.029 418.455 140.663 417.813 140.663 416.53C140.663 415.247 141.029 414.605 141.763 414.605H145.998C149.261 414.605 151.589 415.265 152.983 416.585C154.413 417.905 155.128 420.142 155.128 423.295V428.135C155.128 430.922 154.009 433.067 151.773 434.57C149.573 436.073 146.383 436.825 142.203 436.825C138.096 436.825 134.979 436.092 132.853 434.625C130.726 433.158 129.663 430.995 129.663 428.135V403.165C129.663 400.342 130.726 398.197 132.853 396.73C135.016 395.227 138.114 394.475 142.148 394.475C146.144 394.475 149.169 395.208 151.223 396.675C153.276 398.142 154.303 400.305 154.303 403.165V406.19C154.303 407.033 153.569 407.455 152.103 407.455C150.636 407.455 149.903 407.033 149.903 406.19V402.615C149.903 399.755 147.318 398.325 142.148 398.325C139.544 398.325 137.546 398.692 136.153 399.425C134.759 400.158 134.063 401.222 134.063 402.615V428.685C134.063 431.545 136.776 432.975 142.203 432.975C144.989 432.975 147.098 432.608 148.528 431.875C149.994 431.142 150.728 430.078 150.728 428.685ZM188.819 410.865V428.135C188.819 430.922 187.793 433.067 185.739 434.57C183.723 436.073 180.789 436.825 176.939 436.825C173.089 436.825 170.138 436.073 168.084 434.57C166.031 433.067 165.004 430.922 165.004 428.135V410.865C165.004 408.042 166.013 405.897 168.029 404.43C170.083 402.927 173.034 402.175 176.884 402.175C180.734 402.175 183.686 402.927 185.739 404.43C187.793 405.897 188.819 408.042 188.819 410.865ZM184.419 428.685V410.315C184.419 408.922 183.778 407.858 182.494 407.125C181.211 406.392 179.341 406.025 176.884 406.025C171.898 406.025 169.404 407.455 169.404 410.315V428.685C169.404 430.078 170.046 431.142 171.329 431.875C172.613 432.608 174.483 432.975 176.939 432.975C181.926 432.975 184.419 431.545 184.419 428.685ZM224.174 410.865V435.01C224.174 435.853 223.441 436.275 221.974 436.275C220.507 436.275 219.774 435.853 219.774 435.01V410.315C219.774 408.922 219.132 407.858 217.849 407.125C216.566 406.392 214.696 406.025 212.239 406.025C207.252 406.025 204.759 407.455 204.759 410.315V435.01C204.759 435.853 204.026 436.275 202.559 436.275C201.092 436.275 200.359 435.853 200.359 435.01V410.865C200.359 408.042 201.367 405.897 203.384 404.43C205.437 402.927 208.389 402.175 212.239 402.175C216.089 402.175 219.041 402.927 221.094 404.43C223.147 405.897 224.174 408.042 224.174 410.865ZM259.557 411.69V429.4C259.557 430.243 258.823 430.665 257.357 430.665C255.89 430.665 255.157 430.243 255.157 429.4V411.14C255.157 409.82 254.552 408.775 253.342 408.005C252.132 407.235 250.243 406.85 247.677 406.85C245.22 406.85 243.35 407.217 242.067 407.95C240.783 408.683 240.142 409.747 240.142 411.14V426.32C240.142 428.447 240.453 429.95 241.077 430.83C241.737 431.71 242.855 432.15 244.432 432.15H248.777C252.443 432.15 255.157 432.865 256.917 434.295C258.677 435.725 259.557 437.907 259.557 440.84V441.06C259.557 443.993 258.677 446.175 256.917 447.605C255.157 449.035 252.443 449.75 248.777 449.75H236.292C235.558 449.75 235.192 449.108 235.192 447.825C235.192 446.542 235.558 445.9 236.292 445.9H248.777C251.013 445.9 252.627 445.552 253.617 444.855C254.643 444.195 255.157 443.113 255.157 441.61V440.29C255.157 438.787 254.643 437.687 253.617 436.99C252.627 436.33 251.013 436 248.777 436H244.432C241.315 436 239.078 435.248 237.722 433.745C236.402 432.242 235.742 429.767 235.742 426.32V411.69C235.742 408.867 236.768 406.722 238.822 405.255C240.875 403.752 243.827 403 247.677 403H255.377C256.917 403 258.108 402.872 258.952 402.615C259.832 402.322 260.473 402.047 260.877 401.79C261.317 401.497 261.647 401.35 261.867 401.35C262.123 401.35 262.417 401.515 262.747 401.845C263.077 402.175 263.37 402.56 263.627 403C263.883 403.403 264.012 403.788 264.012 404.155C264.012 404.852 263.462 405.438 262.362 405.915C261.298 406.355 259.868 406.648 258.072 406.795C259.062 408.115 259.557 409.747 259.557 411.69ZM282.413 436.825C278.453 436.825 275.392 436.073 273.228 434.57C271.065 433.03 269.983 430.885 269.983 428.135V425.715C269.983 424.872 270.717 424.45 272.183 424.45C273.65 424.45 274.383 424.872 274.383 425.715V428.685C274.383 430.042 275.08 431.105 276.473 431.875C277.903 432.608 279.883 432.975 282.413 432.975C285.017 432.975 287.052 432.608 288.518 431.875C289.985 431.105 290.718 430.042 290.718 428.685V422.47C290.718 421.37 290.278 420.527 289.398 419.94C288.518 419.317 286.832 418.73 284.338 418.18L279.443 417.08C277.17 416.567 275.392 415.962 274.108 415.265C272.862 414.532 271.982 413.542 271.468 412.295C270.992 411.048 270.753 409.417 270.753 407.4V403.165C270.753 400.342 271.78 398.197 273.833 396.73C275.887 395.227 278.838 394.475 282.688 394.475C286.538 394.475 289.472 395.227 291.488 396.73C293.542 398.197 294.568 400.342 294.568 403.165V405.585C294.568 406.428 293.835 406.85 292.368 406.85C290.902 406.85 290.168 406.428 290.168 405.585V402.615C290.168 399.755 287.675 398.325 282.688 398.325C280.232 398.325 278.362 398.692 277.078 399.425C275.795 400.158 275.153 401.222 275.153 402.615V407.29C275.153 409.233 275.447 410.59 276.033 411.36C276.62 412.13 277.757 412.717 279.443 413.12L286.593 414.715C288.793 415.192 290.498 415.778 291.708 416.475C292.955 417.135 293.835 417.978 294.348 419.005C294.862 420.032 295.118 421.333 295.118 422.91V428.135C295.118 430.885 294 433.03 291.763 434.57C289.563 436.073 286.447 436.825 282.413 436.825ZM312.729 432.15H317.514C322.5 432.15 324.994 430.72 324.994 427.86V410.315C324.994 408.922 324.352 407.858 323.069 407.125C321.785 406.392 319.915 406.025 317.459 406.025C312.472 406.025 309.979 407.455 309.979 410.315V448.76C309.979 449.603 309.245 450.025 307.779 450.025C306.312 450.025 305.579 449.603 305.579 448.76V410.865C305.579 408.042 306.587 405.897 308.604 404.43C310.657 402.927 313.609 402.175 317.459 402.175C321.309 402.175 324.26 402.927 326.314 404.43C328.367 405.897 329.394 408.042 329.394 410.865V427.31C329.394 430.097 328.367 432.242 326.314 433.745C324.297 435.248 321.364 436 317.514 436H312.729C311.995 436 311.629 435.358 311.629 434.075C311.629 432.792 311.995 432.15 312.729 432.15ZM364.186 410.865V428.135C364.186 430.922 363.159 433.067 361.106 434.57C359.089 436.073 356.156 436.825 352.306 436.825C348.456 436.825 345.504 436.073 343.451 434.57C341.397 433.067 340.371 430.922 340.371 428.135V410.865C340.371 408.042 341.379 405.897 343.396 404.43C345.449 402.927 348.401 402.175 352.251 402.175C356.101 402.175 359.052 402.927 361.106 404.43C363.159 405.897 364.186 408.042 364.186 410.865ZM359.786 428.685V410.315C359.786 408.922 359.144 407.858 357.861 407.125C356.577 406.392 354.707 406.025 352.251 406.025C347.264 406.025 344.771 407.455 344.771 410.315V428.685C344.771 430.078 345.412 431.142 346.696 431.875C347.979 432.608 349.849 432.975 352.306 432.975C357.292 432.975 359.786 431.545 359.786 428.685ZM382.325 396.565V403H388.1C388.834 403 389.2 403.642 389.2 404.925C389.2 406.208 388.834 406.85 388.1 406.85H382.325V429.565C382.325 430.555 382.454 431.362 382.71 431.985C383.004 432.608 383.279 433.122 383.535 433.525C383.829 433.892 383.975 434.185 383.975 434.405C383.975 434.662 383.81 434.973 383.48 435.34C383.15 435.67 382.765 435.945 382.325 436.165C381.922 436.422 381.537 436.55 381.17 436.55C380.657 436.55 380.144 436.238 379.63 435.615C379.117 434.955 378.695 434.13 378.365 433.14C378.072 432.15 377.925 431.142 377.925 430.115V406.85H373.525C372.792 406.85 372.425 406.208 372.425 404.925C372.425 403.642 372.792 403 373.525 403H377.925V396.565C377.925 395.722 378.659 395.3 380.125 395.3C381.592 395.3 382.325 395.722 382.325 396.565Z"/>
</mask>
<path d="M150.728 428.685V423.295C150.728 421.425 150.398 420.16 149.738 419.5C149.078 418.803 147.831 418.455 145.998 418.455H141.763C141.029 418.455 140.663 417.813 140.663 416.53C140.663 415.247 141.029 414.605 141.763 414.605H145.998C149.261 414.605 151.589 415.265 152.983 416.585C154.413 417.905 155.128 420.142 155.128 423.295V428.135C155.128 430.922 154.009 433.067 151.773 434.57C149.573 436.073 146.383 436.825 142.203 436.825C138.096 436.825 134.979 436.092 132.853 434.625C130.726 433.158 129.663 430.995 129.663 428.135V403.165C129.663 400.342 130.726 398.197 132.853 396.73C135.016 395.227 138.114 394.475 142.148 394.475C146.144 394.475 149.169 395.208 151.223 396.675C153.276 398.142 154.303 400.305 154.303 403.165V406.19C154.303 407.033 153.569 407.455 152.103 407.455C150.636 407.455 149.903 407.033 149.903 406.19V402.615C149.903 399.755 147.318 398.325 142.148 398.325C139.544 398.325 137.546 398.692 136.153 399.425C134.759 400.158 134.063 401.222 134.063 402.615V428.685C134.063 431.545 136.776 432.975 142.203 432.975C144.989 432.975 147.098 432.608 148.528 431.875C149.994 431.142 150.728 430.078 150.728 428.685ZM188.819 410.865V428.135C188.819 430.922 187.793 433.067 185.739 434.57C183.723 436.073 180.789 436.825 176.939 436.825C173.089 436.825 170.138 436.073 168.084 434.57C166.031 433.067 165.004 430.922 165.004 428.135V410.865C165.004 408.042 166.013 405.897 168.029 404.43C170.083 402.927 173.034 402.175 176.884 402.175C180.734 402.175 183.686 402.927 185.739 404.43C187.793 405.897 188.819 408.042 188.819 410.865ZM184.419 428.685V410.315C184.419 408.922 183.778 407.858 182.494 407.125C181.211 406.392 179.341 406.025 176.884 406.025C171.898 406.025 169.404 407.455 169.404 410.315V428.685C169.404 430.078 170.046 431.142 171.329 431.875C172.613 432.608 174.483 432.975 176.939 432.975C181.926 432.975 184.419 431.545 184.419 428.685ZM224.174 410.865V435.01C224.174 435.853 223.441 436.275 221.974 436.275C220.507 436.275 219.774 435.853 219.774 435.01V410.315C219.774 408.922 219.132 407.858 217.849 407.125C216.566 406.392 214.696 406.025 212.239 406.025C207.252 406.025 204.759 407.455 204.759 410.315V435.01C204.759 435.853 204.026 436.275 202.559 436.275C201.092 436.275 200.359 435.853 200.359 435.01V410.865C200.359 408.042 201.367 405.897 203.384 404.43C205.437 402.927 208.389 402.175 212.239 402.175C216.089 402.175 219.041 402.927 221.094 404.43C223.147 405.897 224.174 408.042 224.174 410.865ZM259.557 411.69V429.4C259.557 430.243 258.823 430.665 257.357 430.665C255.89 430.665 255.157 430.243 255.157 429.4V411.14C255.157 409.82 254.552 408.775 253.342 408.005C252.132 407.235 250.243 406.85 247.677 406.85C245.22 406.85 243.35 407.217 242.067 407.95C240.783 408.683 240.142 409.747 240.142 411.14V426.32C240.142 428.447 240.453 429.95 241.077 430.83C241.737 431.71 242.855 432.15 244.432 432.15H248.777C252.443 432.15 255.157 432.865 256.917 434.295C258.677 435.725 259.557 437.907 259.557 440.84V441.06C259.557 443.993 258.677 446.175 256.917 447.605C255.157 449.035 252.443 449.75 248.777 449.75H236.292C235.558 449.75 235.192 449.108 235.192 447.825C235.192 446.542 235.558 445.9 236.292 445.9H248.777C251.013 445.9 252.627 445.552 253.617 444.855C254.643 444.195 255.157 443.113 255.157 441.61V440.29C255.157 438.787 254.643 437.687 253.617 436.99C252.627 436.33 251.013 436 248.777 436H244.432C241.315 436 239.078 435.248 237.722 433.745C236.402 432.242 235.742 429.767 235.742 426.32V411.69C235.742 408.867 236.768 406.722 238.822 405.255C240.875 403.752 243.827 403 247.677 403H255.377C256.917 403 258.108 402.872 258.952 402.615C259.832 402.322 260.473 402.047 260.877 401.79C261.317 401.497 261.647 401.35 261.867 401.35C262.123 401.35 262.417 401.515 262.747 401.845C263.077 402.175 263.37 402.56 263.627 403C263.883 403.403 264.012 403.788 264.012 404.155C264.012 404.852 263.462 405.438 262.362 405.915C261.298 406.355 259.868 406.648 258.072 406.795C259.062 408.115 259.557 409.747 259.557 411.69ZM282.413 436.825C278.453 436.825 275.392 436.073 273.228 434.57C271.065 433.03 269.983 430.885 269.983 428.135V425.715C269.983 424.872 270.717 424.45 272.183 424.45C273.65 424.45 274.383 424.872 274.383 425.715V428.685C274.383 430.042 275.08 431.105 276.473 431.875C277.903 432.608 279.883 432.975 282.413 432.975C285.017 432.975 287.052 432.608 288.518 431.875C289.985 431.105 290.718 430.042 290.718 428.685V422.47C290.718 421.37 290.278 420.527 289.398 419.94C288.518 419.317 286.832 418.73 284.338 418.18L279.443 417.08C277.17 416.567 275.392 415.962 274.108 415.265C272.862 414.532 271.982 413.542 271.468 412.295C270.992 411.048 270.753 409.417 270.753 407.4V403.165C270.753 400.342 271.78 398.197 273.833 396.73C275.887 395.227 278.838 394.475 282.688 394.475C286.538 394.475 289.472 395.227 291.488 396.73C293.542 398.197 294.568 400.342 294.568 403.165V405.585C294.568 406.428 293.835 406.85 292.368 406.85C290.902 406.85 290.168 406.428 290.168 405.585V402.615C290.168 399.755 287.675 398.325 282.688 398.325C280.232 398.325 278.362 398.692 277.078 399.425C275.795 400.158 275.153 401.222 275.153 402.615V407.29C275.153 409.233 275.447 410.59 276.033 411.36C276.62 412.13 277.757 412.717 279.443 413.12L286.593 414.715C288.793 415.192 290.498 415.778 291.708 416.475C292.955 417.135 293.835 417.978 294.348 419.005C294.862 420.032 295.118 421.333 295.118 422.91V428.135C295.118 430.885 294 433.03 291.763 434.57C289.563 436.073 286.447 436.825 282.413 436.825ZM312.729 432.15H317.514C322.5 432.15 324.994 430.72 324.994 427.86V410.315C324.994 408.922 324.352 407.858 323.069 407.125C321.785 406.392 319.915 406.025 317.459 406.025C312.472 406.025 309.979 407.455 309.979 410.315V448.76C309.979 449.603 309.245 450.025 307.779 450.025C306.312 450.025 305.579 449.603 305.579 448.76V410.865C305.579 408.042 306.587 405.897 308.604 404.43C310.657 402.927 313.609 402.175 317.459 402.175C321.309 402.175 324.26 402.927 326.314 404.43C328.367 405.897 329.394 408.042 329.394 410.865V427.31C329.394 430.097 328.367 432.242 326.314 433.745C324.297 435.248 321.364 436 317.514 436H312.729C311.995 436 311.629 435.358 311.629 434.075C311.629 432.792 311.995 432.15 312.729 432.15ZM364.186 410.865V428.135C364.186 430.922 363.159 433.067 361.106 434.57C359.089 436.073 356.156 436.825 352.306 436.825C348.456 436.825 345.504 436.073 343.451 434.57C341.397 433.067 340.371 430.922 340.371 428.135V410.865C340.371 408.042 341.379 405.897 343.396 404.43C345.449 402.927 348.401 402.175 352.251 402.175C356.101 402.175 359.052 402.927 361.106 404.43C363.159 405.897 364.186 408.042 364.186 410.865ZM359.786 428.685V410.315C359.786 408.922 359.144 407.858 357.861 407.125C356.577 406.392 354.707 406.025 352.251 406.025C347.264 406.025 344.771 407.455 344.771 410.315V428.685C344.771 430.078 345.412 431.142 346.696 431.875C347.979 432.608 349.849 432.975 352.306 432.975C357.292 432.975 359.786 431.545 359.786 428.685ZM382.325 396.565V403H388.1C388.834 403 389.2 403.642 389.2 404.925C389.2 406.208 388.834 406.85 388.1 406.85H382.325V429.565C382.325 430.555 382.454 431.362 382.71 431.985C383.004 432.608 383.279 433.122 383.535 433.525C383.829 433.892 383.975 434.185 383.975 434.405C383.975 434.662 383.81 434.973 383.48 435.34C383.15 435.67 382.765 435.945 382.325 436.165C381.922 436.422 381.537 436.55 381.17 436.55C380.657 436.55 380.144 436.238 379.63 435.615C379.117 434.955 378.695 434.13 378.365 433.14C378.072 432.15 377.925 431.142 377.925 430.115V406.85H373.525C372.792 406.85 372.425 406.208 372.425 404.925C372.425 403.642 372.792 403 373.525 403H377.925V396.565C377.925 395.722 378.659 395.3 380.125 395.3C381.592 395.3 382.325 395.722 382.325 396.565Z" fill="#4CB1F1"/>
<path d="M149.738 419.5L149.012 420.188L149.021 420.198L149.03 420.207L149.738 419.5ZM152.983 416.585L152.295 417.311L152.304 417.32L152.983 416.585ZM151.773 434.57L151.215 433.74L151.208 433.744L151.773 434.57ZM132.853 434.625L133.42 433.802L132.853 434.625ZM132.853 396.73L133.42 397.553L133.423 397.551L132.853 396.73ZM151.223 396.675L150.641 397.489L151.223 396.675ZM136.153 399.425L136.618 400.31H136.618L136.153 399.425ZM148.528 431.875L148.08 430.981L148.071 430.985L148.528 431.875ZM150.728 428.685H151.728V423.295H150.728H149.728V428.685H150.728ZM150.728 423.295H151.728C151.728 421.391 151.409 419.757 150.445 418.793L149.738 419.5L149.03 420.207C149.386 420.563 149.728 421.459 149.728 423.295H150.728ZM149.738 419.5L150.464 418.812C149.502 417.798 147.882 417.455 145.998 417.455V418.455V419.455C147.78 419.455 148.653 419.809 149.012 420.188L149.738 419.5ZM145.998 418.455V417.455H141.763V418.455V419.455H145.998V418.455ZM141.763 418.455V417.455C141.729 417.455 141.748 417.449 141.785 417.471C141.822 417.492 141.825 417.51 141.806 417.478C141.751 417.382 141.663 417.109 141.663 416.53H140.663H139.663C139.663 417.234 139.757 417.924 140.069 418.47C140.429 419.099 141.034 419.455 141.763 419.455V418.455ZM140.663 416.53H141.663C141.663 415.951 141.751 415.678 141.806 415.582C141.825 415.55 141.822 415.568 141.785 415.589C141.748 415.611 141.729 415.605 141.763 415.605V414.605V413.605C141.034 413.605 140.429 413.961 140.069 414.59C139.757 415.136 139.663 415.826 139.663 416.53H140.663ZM141.763 414.605V415.605H145.998V414.605V413.605H141.763V414.605ZM145.998 414.605V415.605C149.172 415.605 151.181 416.255 152.295 417.311L152.983 416.585L153.67 415.859C151.998 414.275 149.35 413.605 145.998 413.605V414.605ZM152.983 416.585L152.304 417.32C153.432 418.361 154.128 420.253 154.128 423.295H155.128H156.128C156.128 420.03 155.393 417.449 153.661 415.85L152.983 416.585ZM155.128 423.295H154.128V428.135H155.128H156.128V423.295H155.128ZM155.128 428.135H154.128C154.128 430.602 153.164 432.43 151.215 433.74L151.773 434.57L152.33 435.4C154.855 433.703 156.128 431.241 156.128 428.135H155.128ZM151.773 434.57L151.208 433.744C149.245 435.086 146.287 435.825 142.203 435.825V436.825V437.825C146.478 437.825 149.901 437.06 152.337 435.396L151.773 434.57ZM142.203 436.825V435.825C138.189 435.825 135.308 435.104 133.42 433.802L132.853 434.625L132.285 435.448C134.651 437.08 138.003 437.825 142.203 437.825V436.825ZM132.853 434.625L133.42 433.802C131.597 432.544 130.663 430.707 130.663 428.135H129.663H128.663C128.663 431.283 129.855 433.773 132.285 435.448L132.853 434.625ZM129.663 428.135H130.663V403.165H129.663H128.663V428.135H129.663ZM129.663 403.165H130.663C130.663 400.635 131.593 398.814 133.42 397.553L132.853 396.73L132.285 395.907C129.859 397.58 128.663 400.049 128.663 403.165H129.663ZM132.853 396.73L133.423 397.551C135.352 396.211 138.217 395.475 142.148 395.475V394.475V393.475C138.012 393.475 134.68 394.242 132.282 395.909L132.853 396.73ZM142.148 394.475V395.475C146.048 395.475 148.831 396.195 150.641 397.489L151.223 396.675L151.804 395.861C149.508 394.221 146.24 393.475 142.148 393.475V394.475ZM151.223 396.675L150.641 397.489C152.394 398.741 153.303 400.578 153.303 403.165H154.303H155.303C155.303 400.032 154.158 397.543 151.804 395.861L151.223 396.675ZM154.303 403.165H153.303V406.19H154.303H155.303V403.165H154.303ZM154.303 406.19H153.303C153.303 406.252 153.29 406.258 153.3 406.242C153.309 406.226 153.309 406.24 153.254 406.272C153.113 406.353 152.773 406.455 152.103 406.455V407.455V408.455C152.899 408.455 153.659 408.346 154.251 408.006C154.927 407.617 155.303 406.971 155.303 406.19H154.303ZM152.103 407.455V406.455C151.432 406.455 151.092 406.353 150.951 406.272C150.896 406.24 150.896 406.226 150.905 406.242C150.915 406.258 150.903 406.252 150.903 406.19H149.903H148.903C148.903 406.971 149.278 407.617 149.954 408.006C150.547 408.346 151.306 408.455 152.103 408.455V407.455ZM149.903 406.19H150.903V402.615H149.903H148.903V406.19H149.903ZM149.903 402.615H150.903C150.903 401.744 150.704 400.935 150.274 400.222C149.846 399.511 149.22 398.95 148.448 398.522C146.934 397.685 144.792 397.325 142.148 397.325V398.325V399.325C144.673 399.325 146.409 399.68 147.48 400.273C148 400.56 148.344 400.893 148.561 401.254C148.778 401.614 148.903 402.056 148.903 402.615H149.903ZM142.148 398.325V397.325C139.476 397.325 137.289 397.697 135.687 398.54L136.153 399.425L136.618 400.31C137.803 399.686 139.613 399.325 142.148 399.325V398.325ZM136.153 399.425L135.687 398.54C134.875 398.967 134.21 399.521 133.749 400.224C133.283 400.935 133.063 401.743 133.063 402.615H134.063H135.063C135.063 402.094 135.19 401.674 135.422 401.321C135.657 400.961 136.036 400.616 136.618 400.31L136.153 399.425ZM134.063 402.615H133.063V428.685H134.063H135.063V402.615H134.063ZM134.063 428.685H133.063C133.063 429.565 133.273 430.381 133.726 431.096C134.177 431.808 134.83 432.365 135.631 432.787C137.204 433.616 139.434 433.975 142.203 433.975V432.975V431.975C139.545 431.975 137.705 431.619 136.564 431.018C136.008 430.725 135.644 430.388 135.416 430.027C135.191 429.671 135.063 429.235 135.063 428.685H134.063ZM142.203 432.975V433.975C145.047 433.975 147.344 433.606 148.984 432.765L148.528 431.875L148.071 430.985C146.851 431.611 144.931 431.975 142.203 431.975V432.975ZM148.528 431.875L148.975 432.769C149.819 432.347 150.516 431.798 151.001 431.095C151.492 430.383 151.728 429.568 151.728 428.685H150.728H149.728C149.728 429.196 149.597 429.608 149.354 429.96C149.106 430.32 148.703 430.669 148.08 430.981L148.528 431.875ZM185.739 434.57L185.149 433.763L185.142 433.768L185.739 434.57ZM168.084 434.57L167.494 435.377L168.084 434.57ZM168.029 404.43L168.618 405.239L168.62 405.237L168.029 404.43ZM185.739 404.43L185.149 405.237L185.158 405.244L185.739 404.43ZM182.494 407.125L182.991 406.257V406.257L182.494 407.125ZM171.329 431.875L170.833 432.743L171.329 431.875ZM188.819 410.865H187.819V428.135H188.819H189.819V410.865H188.819ZM188.819 428.135H187.819C187.819 430.638 186.918 432.468 185.149 433.763L185.739 434.57L186.33 435.377C188.668 433.665 189.819 431.205 189.819 428.135H188.819ZM185.739 434.57L185.142 433.768C183.368 435.091 180.682 435.825 176.939 435.825V436.825V437.825C180.897 437.825 184.078 437.056 186.337 435.372L185.739 434.57ZM176.939 436.825V435.825C173.199 435.825 170.489 435.091 168.675 433.763L168.084 434.57L167.494 435.377C169.786 437.055 172.98 437.825 176.939 437.825V436.825ZM168.084 434.57L168.675 433.763C166.906 432.468 166.004 430.638 166.004 428.135H165.004H164.004C164.004 431.205 165.156 433.665 167.494 435.377L168.084 434.57ZM165.004 428.135H166.004V410.865H165.004H164.004V428.135H165.004ZM165.004 410.865H166.004C166.004 408.313 166.897 406.49 168.618 405.239L168.029 404.43L167.441 403.621C165.129 405.303 164.004 407.77 164.004 410.865H165.004ZM168.029 404.43L168.62 405.237C170.434 403.909 173.144 403.175 176.884 403.175V402.175V401.175C172.925 401.175 169.731 401.945 167.439 403.623L168.029 404.43ZM176.884 402.175V403.175C180.625 403.175 183.334 403.909 185.149 405.237L185.739 404.43L186.33 403.623C184.038 401.945 180.844 401.175 176.884 401.175V402.175ZM185.739 404.43L185.158 405.244C186.914 406.498 187.819 408.32 187.819 410.865H188.819H189.819C189.819 407.763 188.671 405.295 186.321 403.616L185.739 404.43ZM184.419 428.685H185.419V410.315H184.419H183.419V428.685H184.419ZM184.419 410.315H185.419C185.419 408.537 184.562 407.155 182.991 406.257L182.494 407.125L181.998 407.993C182.993 408.562 183.419 409.307 183.419 410.315H184.419ZM182.494 407.125L182.991 406.257C181.487 405.398 179.413 405.025 176.884 405.025V406.025V407.025C179.269 407.025 180.935 407.386 181.998 407.993L182.494 407.125ZM176.884 406.025V405.025C174.328 405.025 172.249 405.386 170.777 406.23C169.221 407.122 168.404 408.524 168.404 410.315H169.404H170.404C170.404 409.246 170.834 408.503 171.772 407.965C172.793 407.379 174.454 407.025 176.884 407.025V406.025ZM169.404 410.315H168.404V428.685H169.404H170.404V410.315H169.404ZM169.404 428.685H168.404C168.404 430.463 169.262 431.845 170.833 432.743L171.329 431.875L171.826 431.007C170.831 430.438 170.404 429.693 170.404 428.685H169.404ZM171.329 431.875L170.833 432.743C172.337 433.602 174.411 433.975 176.939 433.975V432.975V431.975C174.555 431.975 172.889 431.614 171.826 431.007L171.329 431.875ZM176.939 432.975V433.975C179.496 433.975 181.575 433.614 183.047 432.77C184.602 431.878 185.419 430.476 185.419 428.685H184.419H183.419C183.419 429.754 182.99 430.497 182.052 431.035C181.031 431.621 179.37 431.975 176.939 431.975V432.975ZM217.849 407.125L218.345 406.257V406.257L217.849 407.125ZM203.384 404.43L203.972 405.239L203.975 405.237L203.384 404.43ZM221.094 404.43L220.503 405.237L220.513 405.244L221.094 404.43ZM224.174 410.865H223.174V435.01H224.174H225.174V410.865H224.174ZM224.174 435.01H223.174C223.174 435.072 223.162 435.078 223.171 435.062C223.181 435.046 223.181 435.06 223.126 435.092C222.985 435.173 222.644 435.275 221.974 435.275V436.275V437.275C222.77 437.275 223.53 437.166 224.123 436.826C224.798 436.437 225.174 435.791 225.174 435.01H224.174ZM221.974 436.275V435.275C221.304 435.275 220.964 435.173 220.823 435.092C220.767 435.06 220.767 435.046 220.777 435.062C220.786 435.078 220.774 435.072 220.774 435.01H219.774H218.774C218.774 435.791 219.15 436.437 219.826 436.826C220.418 437.166 221.178 437.275 221.974 437.275V436.275ZM219.774 435.01H220.774V410.315H219.774H218.774V435.01H219.774ZM219.774 410.315H220.774C220.774 408.537 219.917 407.155 218.345 406.257L217.849 407.125L217.353 407.993C218.348 408.562 218.774 409.307 218.774 410.315H219.774ZM217.849 407.125L218.345 406.257C216.842 405.398 214.768 405.025 212.239 405.025V406.025V407.025C214.624 407.025 216.29 407.386 217.353 407.993L217.849 407.125ZM212.239 406.025V405.025C209.683 405.025 207.604 405.386 206.132 406.23C204.576 407.122 203.759 408.524 203.759 410.315H204.759H205.759C205.759 409.246 206.189 408.503 207.127 407.965C208.148 407.379 209.809 407.025 212.239 407.025V406.025ZM204.759 410.315H203.759V435.01H204.759H205.759V410.315H204.759ZM204.759 435.01H203.759C203.759 435.072 203.747 435.078 203.756 435.062C203.766 435.046 203.766 435.06 203.711 435.092C203.57 435.173 203.229 435.275 202.559 435.275V436.275V437.275C203.355 437.275 204.115 437.166 204.708 436.826C205.383 436.437 205.759 435.791 205.759 435.01H204.759ZM202.559 436.275V435.275C201.889 435.275 201.549 435.173 201.408 435.092C201.352 435.06 201.352 435.046 201.362 435.062C201.371 435.078 201.359 435.072 201.359 435.01H200.359H199.359C199.359 435.791 199.735 436.437 200.411 436.826C201.003 437.166 201.763 437.275 202.559 437.275V436.275ZM200.359 435.01H201.359V410.865H200.359H199.359V435.01H200.359ZM200.359 410.865H201.359C201.359 408.313 202.251 406.49 203.972 405.239L203.384 404.43L202.796 403.621C200.483 405.303 199.359 407.77 199.359 410.865H200.359ZM203.384 404.43L203.975 405.237C205.789 403.909 208.499 403.175 212.239 403.175V402.175V401.175C208.28 401.175 205.086 401.945 202.793 403.623L203.384 404.43ZM212.239 402.175V403.175C215.98 403.175 218.689 403.909 220.503 405.237L221.094 404.43L221.685 403.623C219.392 401.945 216.199 401.175 212.239 401.175V402.175ZM221.094 404.43L220.513 405.244C222.269 406.498 223.174 408.32 223.174 410.865H224.174H225.174C225.174 407.763 224.026 405.295 221.675 403.616L221.094 404.43ZM253.342 408.005L252.805 408.849L253.342 408.005ZM242.067 407.95L241.571 407.082L242.067 407.95ZM241.077 430.83L240.261 431.408L240.269 431.419L240.277 431.43L241.077 430.83ZM256.917 434.295L256.286 435.071L256.917 434.295ZM256.917 447.605L256.286 446.829L256.917 447.605ZM253.617 444.855L253.076 444.014L253.058 444.025L253.041 444.037L253.617 444.855ZM253.617 436.99L254.178 436.162L254.171 436.158L253.617 436.99ZM237.722 433.745L236.97 434.405L236.979 434.415L237.722 433.745ZM238.822 405.255L239.403 406.069L239.412 406.062L238.822 405.255ZM258.952 402.615L259.243 403.572L259.255 403.568L259.268 403.564L258.952 402.615ZM260.877 401.79L261.414 402.634L261.423 402.628L261.431 402.622L260.877 401.79ZM263.627 403L262.763 403.504L262.773 403.521L262.783 403.537L263.627 403ZM262.362 405.915L262.744 406.839L262.752 406.836L262.759 406.833L262.362 405.915ZM258.072 406.795L257.99 405.798L256.185 405.946L257.272 407.395L258.072 406.795ZM259.557 411.69H258.557V429.4H259.557H260.557V411.69H259.557ZM259.557 429.4H258.557C258.557 429.462 258.545 429.468 258.554 429.452C258.563 429.436 258.564 429.45 258.508 429.482C258.367 429.563 258.027 429.665 257.357 429.665V430.665V431.665C258.153 431.665 258.913 431.556 259.505 431.216C260.181 430.827 260.557 430.181 260.557 429.4H259.557ZM257.357 430.665V429.665C256.686 429.665 256.346 429.563 256.205 429.482C256.15 429.45 256.15 429.436 256.159 429.452C256.169 429.468 256.157 429.462 256.157 429.4H255.157H254.157C254.157 430.181 254.532 430.827 255.208 431.216C255.801 431.556 256.56 431.665 257.357 431.665V430.665ZM255.157 429.4H256.157V411.14H255.157H254.157V429.4H255.157ZM255.157 411.14H256.157C256.157 409.444 255.347 408.096 253.879 407.161L253.342 408.005L252.805 408.849C253.756 409.454 254.157 410.196 254.157 411.14H255.157ZM253.342 408.005L253.879 407.161C252.425 406.237 250.303 405.85 247.677 405.85V406.85V407.85C250.183 407.85 251.838 408.233 252.805 408.849L253.342 408.005ZM247.677 406.85V405.85C245.148 405.85 243.074 406.223 241.571 407.082L242.067 407.95L242.563 408.818C243.626 408.211 245.292 407.85 247.677 407.85V406.85ZM242.067 407.95L241.571 407.082C239.999 407.98 239.142 409.362 239.142 411.14H240.142H241.142C241.142 410.132 241.568 409.387 242.563 408.818L242.067 407.95ZM240.142 411.14H239.142V426.32H240.142H241.142V411.14H240.142ZM240.142 426.32H239.142C239.142 428.485 239.448 430.26 240.261 431.408L241.077 430.83L241.893 430.252C241.459 429.64 241.142 428.408 241.142 426.32H240.142ZM241.077 430.83L240.277 431.43C241.198 432.658 242.684 433.15 244.432 433.15V432.15V431.15C243.026 431.15 242.276 430.762 241.877 430.23L241.077 430.83ZM244.432 432.15V433.15H248.777V432.15V431.15H244.432V432.15ZM248.777 432.15V433.15C252.346 433.15 254.785 433.852 256.286 435.071L256.917 434.295L257.547 433.519C255.528 431.878 252.541 431.15 248.777 431.15V432.15ZM256.917 434.295L256.286 435.071C257.747 436.258 258.557 438.112 258.557 440.84H259.557H260.557C260.557 437.701 259.606 435.192 257.547 433.519L256.917 434.295ZM259.557 440.84H258.557V441.06H259.557H260.557V440.84H259.557ZM259.557 441.06H258.557C258.557 443.788 257.747 445.642 256.286 446.829L256.917 447.605L257.547 448.381C259.606 446.708 260.557 444.199 260.557 441.06H259.557ZM256.917 447.605L256.286 446.829C254.785 448.048 252.346 448.75 248.777 448.75V449.75V450.75C252.541 450.75 255.528 450.022 257.547 448.381L256.917 447.605ZM248.777 449.75V448.75H236.292V449.75V450.75H248.777V449.75ZM236.292 449.75V448.75C236.258 448.75 236.277 448.744 236.314 448.766C236.351 448.787 236.354 448.805 236.335 448.773C236.28 448.677 236.192 448.404 236.192 447.825H235.192H234.192C234.192 448.529 234.287 449.219 234.598 449.765C234.958 450.394 235.563 450.75 236.292 450.75V449.75ZM235.192 447.825H236.192C236.192 447.246 236.28 446.973 236.335 446.877C236.354 446.845 236.351 446.863 236.314 446.884C236.277 446.906 236.258 446.9 236.292 446.9V445.9V444.9C235.563 444.9 234.958 445.256 234.598 445.885C234.287 446.431 234.192 447.121 234.192 447.825H235.192ZM236.292 445.9V446.9H248.777V445.9V444.9H236.292V445.9ZM248.777 445.9V446.9C251.069 446.9 252.942 446.552 254.192 445.673L253.617 444.855L253.041 444.037C252.311 444.551 250.958 444.9 248.777 444.9V445.9ZM253.617 444.855L254.157 445.696C255.539 444.808 256.157 443.363 256.157 441.61H255.157H254.157C254.157 442.864 253.748 443.582 253.076 444.014L253.617 444.855ZM255.157 441.61H256.157V440.29H255.157H254.157V441.61H255.157ZM255.157 440.29H256.157C256.157 438.535 255.539 437.086 254.178 436.163L253.617 436.99L253.055 437.817C253.747 438.287 254.157 439.038 254.157 440.29H255.157ZM253.617 436.99L254.171 436.158C252.927 435.328 251.063 435 248.777 435V436V437C250.964 437 252.327 437.332 253.062 437.822L253.617 436.99ZM248.777 436V435H244.432V436V437H248.777V436ZM244.432 436V435C241.446 435 239.549 434.277 238.464 433.075L237.722 433.745L236.979 434.415C238.608 436.219 241.184 437 244.432 437V436ZM237.722 433.745L238.473 433.085C237.395 431.857 236.742 429.684 236.742 426.32H235.742H234.742C234.742 429.849 235.409 432.627 236.97 434.405L237.722 433.745ZM235.742 426.32H236.742V411.69H235.742H234.742V426.32H235.742ZM235.742 411.69H236.742C236.742 409.145 237.647 407.323 239.403 406.069L238.822 405.255L238.24 404.441C235.89 406.12 234.742 408.588 234.742 411.69H235.742ZM238.822 405.255L239.412 406.062C241.227 404.734 243.936 404 247.677 404V403V402C243.717 402 240.523 402.77 238.231 404.448L238.822 405.255ZM247.677 403V404H255.377V403V402H247.677V403ZM255.377 403V404C256.953 404 258.26 403.871 259.243 403.572L258.952 402.615L258.661 401.658C257.957 401.873 256.88 402 255.377 402V403ZM258.952 402.615L259.268 403.564C260.167 403.264 260.904 402.958 261.414 402.634L260.877 401.79L260.34 400.946C260.043 401.135 259.496 401.379 258.635 401.666L258.952 402.615ZM260.877 401.79L261.431 402.622C261.624 402.494 261.765 402.416 261.86 402.374C261.907 402.353 261.932 402.345 261.939 402.344C261.947 402.342 261.92 402.35 261.867 402.35V401.35V400.35C261.555 400.35 261.269 400.448 261.048 400.546C260.814 400.65 260.57 400.793 260.322 400.958L260.877 401.79ZM261.867 401.35V402.35C261.778 402.35 261.747 402.322 261.789 402.345C261.832 402.37 261.916 402.429 262.04 402.552L262.747 401.845L263.454 401.138C263.076 400.76 262.536 400.35 261.867 400.35V401.35ZM262.747 401.845L262.04 402.552C262.304 402.816 262.546 403.131 262.763 403.504L263.627 403L264.49 402.496C264.194 401.989 263.85 401.534 263.454 401.138L262.747 401.845ZM263.627 403L262.783 403.537C262.968 403.828 263.012 404.028 263.012 404.155H264.012H265.012C265.012 403.548 264.799 402.979 264.47 402.463L263.627 403ZM264.012 404.155H263.012C263.012 404.216 262.982 404.556 261.964 404.997L262.362 405.915L262.759 406.833C263.941 406.32 265.012 405.488 265.012 404.155H264.012ZM262.362 405.915L261.979 404.991C261.05 405.375 259.735 405.656 257.99 405.798L258.072 406.795L258.153 407.792C260.002 407.641 261.546 407.335 262.744 406.839L262.362 405.915ZM258.072 406.795L257.272 407.395C258.11 408.513 258.557 409.923 258.557 411.69H259.557H260.557C260.557 409.57 260.014 407.717 258.872 406.195L258.072 406.795ZM273.229 434.57L272.649 435.385L272.658 435.391L273.229 434.57ZM276.473 431.875L275.99 432.75L276.003 432.758L276.017 432.765L276.473 431.875ZM288.518 431.875L288.966 432.769L288.975 432.765L288.983 432.76L288.518 431.875ZM289.398 419.94L288.82 420.756L288.832 420.764L288.844 420.772L289.398 419.94ZM284.339 418.18L284.119 419.156L284.123 419.157L284.339 418.18ZM279.443 417.08L279.223 418.055L279.224 418.056L279.443 417.08ZM274.108 415.265L273.601 416.127L273.616 416.136L273.631 416.144L274.108 415.265ZM271.468 412.295L270.534 412.652L270.539 412.664L270.544 412.676L271.468 412.295ZM273.833 396.73L274.415 397.544L274.424 397.537L273.833 396.73ZM291.488 396.73L290.891 397.532L290.899 397.538L290.907 397.544L291.488 396.73ZM277.078 399.425L277.575 400.293L277.078 399.425ZM279.443 413.12L279.211 414.093L279.218 414.094L279.226 414.096L279.443 413.12ZM286.593 414.715L286.376 415.691L286.382 415.692L286.593 414.715ZM291.708 416.475L291.21 417.342L291.225 417.35L291.241 417.359L291.708 416.475ZM291.764 434.57L292.328 435.396L292.331 435.394L291.764 434.57ZM282.413 436.825V435.825C278.561 435.825 275.73 435.091 273.799 433.749L273.229 434.57L272.658 435.391C275.054 437.056 278.346 437.825 282.413 437.825V436.825ZM273.229 434.57L273.808 433.755C271.92 432.411 270.983 430.575 270.983 428.135H269.983H268.983C268.983 431.195 270.211 433.649 272.649 435.385L273.229 434.57ZM269.983 428.135H270.983V425.715H269.983H268.983V428.135H269.983ZM269.983 425.715H270.983C270.983 425.653 270.996 425.647 270.986 425.663C270.977 425.679 270.977 425.665 271.032 425.633C271.173 425.552 271.513 425.45 272.184 425.45V424.45V423.45C271.387 423.45 270.627 423.559 270.035 423.899C269.359 424.288 268.983 424.934 268.983 425.715H269.983ZM272.184 424.45V425.45C272.854 425.45 273.194 425.552 273.335 425.633C273.39 425.665 273.39 425.679 273.381 425.663C273.371 425.647 273.383 425.653 273.383 425.715H274.383H275.383C275.383 424.934 275.008 424.288 274.332 423.899C273.74 423.559 272.98 423.45 272.184 423.45V424.45ZM274.383 425.715H273.383V428.685H274.383H275.383V425.715H274.383ZM274.383 428.685H273.383C273.383 430.476 274.344 431.841 275.99 432.75L276.473 431.875L276.957 431C275.816 430.369 275.383 429.608 275.383 428.685H274.383ZM276.473 431.875L276.017 432.765C277.647 433.6 279.807 433.975 282.413 433.975V432.975V431.975C279.96 431.975 278.16 431.616 276.93 430.985L276.473 431.875ZM282.413 432.975V433.975C285.09 433.975 287.302 433.601 288.966 432.769L288.518 431.875L288.071 430.981C286.802 431.615 284.943 431.975 282.413 431.975V432.975ZM288.518 431.875L288.983 432.76C290.692 431.863 291.718 430.502 291.718 428.685H290.718H289.718C289.718 429.581 289.278 430.347 288.054 430.99L288.518 431.875ZM290.718 428.685H291.718V422.47H290.718H289.718V428.685H290.718ZM290.718 422.47H291.718C291.718 421.052 291.124 419.889 289.953 419.108L289.398 419.94L288.844 420.772C289.433 421.165 289.718 421.688 289.718 422.47H290.718ZM289.398 419.94L289.977 419.124C288.915 418.372 287.047 417.753 284.554 417.203L284.339 418.18L284.123 419.157C286.617 419.707 288.122 420.261 288.82 420.756L289.398 419.94ZM284.339 418.18L284.558 417.204L279.663 416.104L279.443 417.08L279.224 418.056L284.119 419.156L284.339 418.18ZM279.443 417.08L279.664 416.105C277.434 415.601 275.755 415.021 274.586 414.386L274.108 415.265L273.631 416.144C275.029 416.902 276.907 417.532 279.223 418.055L279.443 417.08ZM274.108 415.265L274.616 414.403C273.542 413.772 272.817 412.944 272.393 411.914L271.468 412.295L270.544 412.676C271.146 414.139 272.181 415.292 273.601 416.127L274.108 415.265ZM271.468 412.295L272.403 411.938C271.986 410.848 271.753 409.351 271.753 407.4H270.753H269.753C269.753 409.483 269.998 411.249 270.534 412.652L271.468 412.295ZM270.753 407.4H271.753V403.165H270.753H269.753V407.4H270.753ZM270.753 403.165H271.753C271.753 400.62 272.658 398.798 274.415 397.544L273.833 396.73L273.252 395.916C270.902 397.595 269.753 400.063 269.753 403.165H270.753ZM273.833 396.73L274.424 397.537C276.238 396.209 278.948 395.475 282.688 395.475V394.475V393.475C278.729 393.475 275.535 394.245 273.243 395.923L273.833 396.73ZM282.688 394.475V395.475C286.431 395.475 289.117 396.209 290.891 397.532L291.488 396.73L292.086 395.928C289.827 394.244 286.646 393.475 282.688 393.475V394.475ZM291.488 396.73L290.907 397.544C292.664 398.798 293.568 400.62 293.568 403.165H294.568H295.568C295.568 400.063 294.42 397.595 292.07 395.916L291.488 396.73ZM294.568 403.165H293.568V405.585H294.568H295.568V403.165H294.568ZM294.568 405.585H293.568C293.568 405.647 293.556 405.653 293.566 405.637C293.575 405.621 293.575 405.635 293.52 405.667C293.379 405.748 293.039 405.85 292.368 405.85V406.85V407.85C293.165 407.85 293.925 407.741 294.517 407.401C295.193 407.012 295.568 406.366 295.568 405.585H294.568ZM292.368 406.85V405.85C291.698 405.85 291.358 405.748 291.217 405.667C291.162 405.635 291.162 405.621 291.171 405.637C291.181 405.653 291.169 405.647 291.169 405.585H290.169H289.169C289.169 406.366 289.544 407.012 290.22 407.401C290.812 407.741 291.572 407.85 292.368 407.85V406.85ZM290.169 405.585H291.169V402.615H290.169H289.169V405.585H290.169ZM290.169 402.615H291.169C291.169 400.824 290.352 399.422 288.796 398.53C287.324 397.686 285.245 397.325 282.688 397.325V398.325V399.325C285.119 399.325 286.78 399.679 287.801 400.265C288.739 400.803 289.169 401.546 289.169 402.615H290.169ZM282.688 398.325V397.325C280.16 397.325 278.086 397.698 276.582 398.557L277.078 399.425L277.575 400.293C278.638 399.686 280.304 399.325 282.688 399.325V398.325ZM277.078 399.425L276.582 398.557C275.011 399.455 274.154 400.837 274.154 402.615H275.154H276.154C276.154 401.607 276.58 400.862 277.575 400.293L277.078 399.425ZM275.154 402.615H274.154V407.29H275.154H276.154V402.615H275.154ZM275.154 407.29H274.154C274.154 409.268 274.439 410.917 275.238 411.966L276.033 411.36L276.829 410.754C276.455 410.263 276.154 409.199 276.154 407.29H275.154ZM276.033 411.36L275.238 411.966C276.039 413.017 277.458 413.673 279.211 414.093L279.443 413.12L279.676 412.147C278.056 411.76 277.202 411.243 276.829 410.754L276.033 411.36ZM279.443 413.12L279.226 414.096L286.376 415.691L286.593 414.715L286.811 413.739L279.661 412.144L279.443 413.12ZM286.593 414.715L286.382 415.692C288.535 416.159 290.127 416.718 291.21 417.342L291.708 416.475L292.207 415.608C290.87 414.839 289.052 414.225 286.805 413.738L286.593 414.715ZM291.708 416.475L291.241 417.359C292.346 417.944 293.053 418.651 293.454 419.452L294.348 419.005L295.243 418.558C294.617 417.306 293.564 416.326 292.176 415.591L291.708 416.475ZM294.348 419.005L293.454 419.452C293.877 420.298 294.118 421.434 294.118 422.91H295.118H296.118C296.118 421.233 295.847 419.765 295.243 418.558L294.348 419.005ZM295.118 422.91H294.118V428.135H295.118H296.118V422.91H295.118ZM295.118 428.135H294.118C294.118 430.561 293.158 432.396 291.196 433.746L291.764 434.57L292.331 435.394C294.842 433.664 296.118 431.209 296.118 428.135H295.118ZM291.764 434.57L291.199 433.744C289.231 435.09 286.342 435.825 282.413 435.825V436.825V437.825C286.551 437.825 289.896 437.057 292.328 435.396L291.764 434.57ZM323.069 407.125L323.565 406.257L323.565 406.257L323.069 407.125ZM308.604 404.43L309.192 405.239L309.195 405.237L308.604 404.43ZM326.314 404.43L325.723 405.237L325.733 405.244L326.314 404.43ZM326.314 433.745L325.723 432.938L325.716 432.943L326.314 433.745ZM312.729 432.15V433.15H317.514V432.15V431.15H312.729V432.15ZM317.514 432.15V433.15C320.07 433.15 322.149 432.789 323.621 431.945C325.177 431.053 325.994 429.651 325.994 427.86H324.994H323.994C323.994 428.929 323.564 429.672 322.626 430.21C321.605 430.796 319.944 431.15 317.514 431.15V432.15ZM324.994 427.86H325.994V410.315H324.994H323.994V427.86H324.994ZM324.994 410.315H325.994C325.994 408.537 325.137 407.155 323.565 406.257L323.069 407.125L322.573 407.993C323.568 408.562 323.994 409.307 323.994 410.315H324.994ZM323.069 407.125L323.565 406.257C322.061 405.398 319.987 405.025 317.459 405.025V406.025V407.025C319.844 407.025 321.51 407.386 322.573 407.993L323.069 407.125ZM317.459 406.025V405.025C314.903 405.025 312.823 405.386 311.351 406.23C309.796 407.122 308.979 408.524 308.979 410.315H309.979H310.979C310.979 409.246 311.409 408.503 312.346 407.965C313.368 407.379 315.028 407.025 317.459 407.025V406.025ZM309.979 410.315H308.979V448.76H309.979H310.979V410.315H309.979ZM309.979 448.76H308.979C308.979 448.822 308.967 448.828 308.976 448.812C308.986 448.796 308.986 448.81 308.93 448.842C308.789 448.923 308.449 449.025 307.779 449.025V450.025V451.025C308.575 451.025 309.335 450.916 309.927 450.576C310.603 450.187 310.979 449.541 310.979 448.76H309.979ZM307.779 450.025V449.025C307.109 449.025 306.768 448.923 306.627 448.842C306.572 448.81 306.572 448.796 306.581 448.812C306.591 448.828 306.579 448.822 306.579 448.76H305.579H304.579C304.579 449.541 304.955 450.187 305.63 450.576C306.223 450.916 306.982 451.025 307.779 451.025V450.025ZM305.579 448.76H306.579V410.865H305.579H304.579V448.76H305.579ZM305.579 410.865H306.579C306.579 408.313 307.471 406.49 309.192 405.239L308.604 404.43L308.016 403.621C305.703 405.303 304.579 407.77 304.579 410.865H305.579ZM308.604 404.43L309.195 405.237C311.009 403.909 313.718 403.175 317.459 403.175V402.175V401.175C313.499 401.175 310.305 401.945 308.013 403.623L308.604 404.43ZM317.459 402.175V403.175C321.199 403.175 323.909 403.909 325.723 405.237L326.314 404.43L326.905 403.623C324.612 401.945 321.418 401.175 317.459 401.175V402.175ZM326.314 404.43L325.733 405.244C327.489 406.498 328.394 408.32 328.394 410.865H329.394H330.394C330.394 407.763 329.245 405.295 326.895 403.616L326.314 404.43ZM329.394 410.865H328.394V427.31H329.394H330.394V410.865H329.394ZM329.394 427.31H328.394C328.394 429.813 327.492 431.643 325.723 432.938L326.314 433.745L326.905 434.552C329.242 432.84 330.394 430.38 330.394 427.31H329.394ZM326.314 433.745L325.716 432.943C323.942 434.266 321.256 435 317.514 435V436V437C321.472 437 324.652 436.231 326.911 434.547L326.314 433.745ZM317.514 436V435H312.729V436V437H317.514V436ZM312.729 436V435C312.695 435 312.714 434.994 312.751 435.016C312.788 435.037 312.791 435.055 312.772 435.023C312.717 434.927 312.629 434.654 312.629 434.075H311.629H310.629C310.629 434.779 310.724 435.469 311.036 436.015C311.395 436.644 312 437 312.729 437V436ZM311.629 434.075H312.629C312.629 433.496 312.717 433.223 312.772 433.127C312.791 433.095 312.788 433.113 312.751 433.134C312.714 433.156 312.695 433.15 312.729 433.15V432.15V431.15C312 431.15 311.395 431.506 311.036 432.135C310.724 432.681 310.629 433.371 310.629 434.075H311.629ZM361.106 434.57L360.515 433.763L360.508 433.768L361.106 434.57ZM343.451 434.57L342.86 435.377L343.451 434.57ZM343.396 404.43L343.984 405.239L343.986 405.237L343.396 404.43ZM361.106 404.43L360.515 405.237L360.524 405.244L361.106 404.43ZM357.861 407.125L358.357 406.257V406.257L357.861 407.125ZM346.696 431.875L346.199 432.743L346.696 431.875ZM364.186 410.865H363.186V428.135H364.186H365.186V410.865H364.186ZM364.186 428.135H363.186C363.186 430.638 362.284 432.468 360.515 433.763L361.106 434.57L361.696 435.377C364.034 433.665 365.186 431.205 365.186 428.135H364.186ZM361.106 434.57L360.508 433.768C358.734 435.091 356.048 435.825 352.306 435.825V436.825V437.825C356.263 437.825 359.444 437.056 361.703 435.372L361.106 434.57ZM352.306 436.825V435.825C348.565 435.825 345.856 435.091 344.041 433.763L343.451 434.57L342.86 435.377C345.152 437.055 348.346 437.825 352.306 437.825V436.825ZM343.451 434.57L344.041 433.763C342.272 432.468 341.371 430.638 341.371 428.135H340.371H339.371C339.371 431.205 340.522 433.665 342.86 435.377L343.451 434.57ZM340.371 428.135H341.371V410.865H340.371H339.371V428.135H340.371ZM340.371 410.865H341.371C341.371 408.313 342.263 406.49 343.984 405.239L343.396 404.43L342.807 403.621C340.495 405.303 339.371 407.77 339.371 410.865H340.371ZM343.396 404.43L343.986 405.237C345.801 403.909 348.51 403.175 352.251 403.175V402.175V401.175C348.291 401.175 345.097 401.945 342.805 403.623L343.396 404.43ZM352.251 402.175V403.175C355.991 403.175 358.701 403.909 360.515 405.237L361.106 404.43L361.696 403.623C359.404 401.945 356.21 401.175 352.251 401.175V402.175ZM361.106 404.43L360.524 405.244C362.281 406.498 363.186 408.32 363.186 410.865H364.186H365.186C365.186 407.763 364.037 405.295 361.687 403.616L361.106 404.43ZM359.786 428.685H360.786V410.315H359.786H358.786V428.685H359.786ZM359.786 410.315H360.786C360.786 408.537 359.928 407.155 358.357 406.257L357.861 407.125L357.364 407.993C358.359 408.562 358.786 409.307 358.786 410.315H359.786ZM357.861 407.125L358.357 406.257C356.853 405.398 354.779 405.025 352.251 405.025V406.025V407.025C354.635 407.025 356.301 407.386 357.364 407.993L357.861 407.125ZM352.251 406.025V405.025C349.694 405.025 347.615 405.386 346.143 406.23C344.588 407.122 343.771 408.524 343.771 410.315H344.771H345.771C345.771 409.246 346.2 408.503 347.138 407.965C348.159 407.379 349.82 407.025 352.251 407.025V406.025ZM344.771 410.315H343.771V428.685H344.771H345.771V410.315H344.771ZM344.771 428.685H343.771C343.771 430.463 344.628 431.845 346.199 432.743L346.696 431.875L347.192 431.007C346.197 430.438 345.771 429.693 345.771 428.685H344.771ZM346.696 431.875L346.199 432.743C347.703 433.602 349.777 433.975 352.306 433.975V432.975V431.975C349.921 431.975 348.255 431.614 347.192 431.007L346.696 431.875ZM352.306 432.975V433.975C354.862 433.975 356.941 433.614 358.413 432.77C359.969 431.878 360.786 430.476 360.786 428.685H359.786H358.786C358.786 429.754 358.356 430.497 357.418 431.035C356.397 431.621 354.736 431.975 352.306 431.975V432.975ZM382.325 403H381.325V404H382.325V403ZM382.325 406.85V405.85H381.325V406.85H382.325ZM382.71 431.985L381.786 432.366L381.795 432.389L381.805 432.411L382.71 431.985ZM383.535 433.525L382.692 434.062L382.721 434.107L382.754 434.15L383.535 433.525ZM383.48 435.34L384.187 436.047L384.206 436.029L384.224 436.009L383.48 435.34ZM382.325 436.165L381.878 435.271L381.832 435.294L381.788 435.321L382.325 436.165ZM379.63 435.615L378.841 436.229L378.849 436.24L378.858 436.251L379.63 435.615ZM378.365 433.14L377.406 433.424L377.411 433.44L377.417 433.456L378.365 433.14ZM377.925 406.85H378.925V405.85H377.925V406.85ZM377.925 403V404H378.925V403H377.925ZM382.325 396.565H381.325V403H382.325H383.325V396.565H382.325ZM382.325 403V404H388.1V403V402H382.325V403ZM388.1 403V404C388.134 404 388.115 404.006 388.078 403.984C388.041 403.963 388.038 403.945 388.057 403.977C388.112 404.073 388.2 404.346 388.2 404.925H389.2H390.2C390.2 404.221 390.105 403.531 389.794 402.985C389.434 402.356 388.829 402 388.1 402V403ZM389.2 404.925H388.2C388.2 405.504 388.112 405.777 388.057 405.873C388.038 405.905 388.041 405.887 388.078 405.866C388.115 405.844 388.134 405.85 388.1 405.85V406.85V407.85C388.829 407.85 389.434 407.494 389.794 406.865C390.105 406.319 390.2 405.629 390.2 404.925H389.2ZM388.1 406.85V405.85H382.325V406.85V407.85H388.1V406.85ZM382.325 406.85H381.325V429.565H382.325H383.325V406.85H382.325ZM382.325 429.565H381.325C381.325 430.63 381.462 431.579 381.786 432.366L382.71 431.985L383.635 431.604C383.446 431.144 383.325 430.48 383.325 429.565H382.325ZM382.71 431.985L381.805 432.411C382.11 433.057 382.405 433.611 382.692 434.062L383.535 433.525L384.379 432.988C384.152 432.632 383.898 432.159 383.615 431.559L382.71 431.985ZM383.535 433.525L382.754 434.15C382.874 434.299 382.939 434.404 382.971 434.467C383.006 434.538 382.975 434.508 382.975 434.405H383.975H384.975C384.975 434.082 384.871 433.796 384.76 433.573C384.645 433.343 384.49 433.117 384.316 432.9L383.535 433.525ZM383.975 434.405H382.975C382.975 434.321 383.001 434.3 382.968 434.363C382.935 434.424 382.867 434.526 382.737 434.671L383.48 435.34L384.224 436.009C384.586 435.606 384.975 435.053 384.975 434.405H383.975ZM383.48 435.34L382.773 434.633C382.523 434.883 382.227 435.096 381.878 435.271L382.325 436.165L382.772 437.059C383.303 436.794 383.777 436.457 384.187 436.047L383.48 435.34ZM382.325 436.165L381.788 435.321C381.498 435.506 381.297 435.55 381.17 435.55V436.55V437.55C381.777 437.55 382.346 437.337 382.862 437.009L382.325 436.165ZM381.17 436.55V435.55C381.093 435.55 380.834 435.504 380.402 434.979L379.63 435.615L378.858 436.251C379.453 436.973 380.221 437.55 381.17 437.55V436.55ZM379.63 435.615L380.42 435.001C379.991 434.45 379.617 433.732 379.314 432.824L378.365 433.14L377.417 433.456C377.774 434.528 378.243 435.46 378.841 436.229L379.63 435.615ZM378.365 433.14L379.324 432.856C379.058 431.958 378.925 431.045 378.925 430.115H377.925H376.925C376.925 431.238 377.086 432.342 377.406 433.424L378.365 433.14ZM377.925 430.115H378.925V406.85H377.925H376.925V430.115H377.925ZM377.925 406.85V405.85H373.525V406.85V407.85H377.925V406.85ZM373.525 406.85V405.85C373.492 405.85 373.511 405.844 373.548 405.866C373.585 405.887 373.587 405.905 373.569 405.873C373.514 405.777 373.425 405.504 373.425 404.925H372.425H371.425C371.425 405.629 371.52 406.319 371.832 406.865C372.192 407.494 372.796 407.85 373.525 407.85V406.85ZM372.425 404.925H373.425C373.425 404.346 373.514 404.073 373.569 403.977C373.587 403.945 373.585 403.963 373.548 403.984C373.511 404.006 373.492 404 373.525 404V403V402C372.796 402 372.192 402.356 371.832 402.985C371.52 403.531 371.425 404.221 371.425 404.925H372.425ZM373.525 403V404H377.925V403V402H373.525V403ZM377.925 403H378.925V396.565H377.925H376.925V403H377.925ZM377.925 396.565H378.925C378.925 396.503 378.937 396.497 378.928 396.513C378.919 396.529 378.918 396.515 378.974 396.483C379.115 396.402 379.455 396.3 380.125 396.3V395.3V394.3C379.329 394.3 378.569 394.409 377.977 394.749C377.301 395.138 376.925 395.784 376.925 396.565H377.925ZM380.125 395.3V396.3C380.796 396.3 381.136 396.402 381.277 396.483C381.332 396.515 381.332 396.529 381.323 396.513C381.313 396.497 381.325 396.503 381.325 396.565H382.325H383.325C383.325 395.784 382.95 395.138 382.274 394.749C381.681 394.409 380.922 394.3 380.125 394.3V395.3Z" fill="#4CB1F1" mask="url(#path-7-outside-1_2578_1645)"/>
</svg>
